<?xml version="1.0" encoding="utf-8"?>
<!-- Generator: Adobe Illustrator 27.0.0, SVG Export Plug-In . SVG Version: 6.00 Build 0)  -->
<svg version="1.1" id="Layer_2_00000180327121384539433400000001814072597307295143_"
	 xmlns="http://www.w3.org/2000/svg" xmlns:xlink="http://www.w3.org/1999/xlink" x="0px" y="0px" viewBox="0 0 1802.1 2470"
	 style="enable-background:new 0 0 1802.1 2470;" xml:space="preserve">
<style type="text/css">
	.st0{fill:#FF0000;}
</style>
<g id="Layer_1-2">
	<path class="st0" d="M1225.8,0H818.7c-31.7-1-60,19.8-68.6,50.3L370.5,1340.2l-301.9,91.5L0,1642.1l301.9-91.5L32,2469.9h1610
		c31.8,1.3,60.3-19.6,68.6-50.3l91.5-315.6v-17.4c0,0,0,0,0-0.1c-1-29.3-25.6-52.2-54.9-51.2h-1052l196.7-663.2l306.5-86.9l64-219.6
		l-301.9,91.5L1280.7,68.6V51.3c0,0,0,0,0-0.1C1279.7,21.9,1255.1-1,1225.8,0L1225.8,0z"/>
</g>
</svg>
