<?xml version="1.0" encoding="utf-8"?>
<!-- Generator: Adobe Illustrator 27.0.0, SVG Export Plug-In . SVG Version: 6.00 Build 0)  -->
<svg version="1.1" id="Layer_2_00000114756032420543158850000007074617508957252235_"
	 xmlns="http://www.w3.org/2000/svg" xmlns:xlink="http://www.w3.org/1999/xlink" x="0px" y="0px" viewBox="0 0 2026.3 2682.2"
	 style="enable-background:new 0 0 2026.3 2682.2;" xml:space="preserve">
<style type="text/css">
	.st0{fill:#FF0000;}
</style>
<g id="Layer_1-2">
	<path class="st0" d="M2021.1,1078.3L2021.1,1078.3L2021.1,1078.3c42.1-281.9-172.5-433.4-465.9-534.4l95.2-381.8L1418,104.2
		l-92.7,371.7c-61.1-15.2-123.8-29.6-186.2-43.8l93.3-374.2L1000.2,0l-95.2,381.6c-50.6-11.5-100.2-22.9-148.4-34.9l0.3-1.2
		l-320.5-80l-61.8,248.2c0,0,172.4,39.5,168.8,42c94.1,23.5,111.1,85.8,108.3,135.2l-108.4,434.9l-152.4,611
		c-11.5,28.6-40.7,71.5-106.5,55.2c2.3,3.4-168.9-42.2-168.9-42.2L0,2015.9l302.4,75.4c56.3,14.1,111.4,28.9,165.7,42.8L372,2520.2
		l232.1,57.9l95.2-382.1c63.4,17.2,125,33.1,185.2,48.1l-94.9,380.3l232.4,57.9l96.2-385.4c396.3,75,694.3,44.8,819.7-313.7
		c101.1-288.6-5-455.1-213.5-563.6C1876.2,1384.5,1990.6,1284.6,2021.1,1078.3L2021.1,1078.3z M1490.2,1821.2L1490.2,1821.2
		c-71.8,288.6-557.7,132.6-715.3,93.5l127.6-511.6C1060.1,1442.4,1565.3,1520.3,1490.2,1821.2z M1562.1,1072.5L1562.1,1072.5
		c-65.5,262.5-470,129.1-601.2,96.4l115.7-464C1207.8,737.6,1630.3,798.7,1562.1,1072.5L1562.1,1072.5z"/>
</g>
</svg>
